<mxfile host="app.diagrams.net" modified="2023-04-25T04:06:12.299Z" agent="Mozilla/5.0 (Windows NT 10.0; Win64; x64; rv:109.0) Gecko/20100101 Firefox/112.0" etag="cIBbTN_kXXl1VOXMOv_1" version="21.2.1" type="github">
  <diagram id="kgpKYQtTHZ0yAKxKKP6v" name="Page-1">
    <mxGraphModel dx="1050" dy="566" grid="1" gridSize="10" guides="1" tooltips="1" connect="1" arrows="1" fold="1" page="1" pageScale="1" pageWidth="850" pageHeight="1100" math="0" shadow="0">
      <root>
        <mxCell id="0" />
        <mxCell id="1" parent="0" />
        <mxCell id="3nuBFxr9cyL0pnOWT2aG-1" value=":System" style="shape=umlLifeline;perimeter=lifelinePerimeter;container=1;collapsible=0;recursiveResize=0;rounded=0;shadow=0;strokeWidth=1;fontSize=14;" parent="1" vertex="1">
          <mxGeometry x="50" y="10" width="110" height="590" as="geometry" />
        </mxCell>
        <mxCell id="WSKPEvt7Ojsi1xpnJ06T-1" value="" style="points=[];perimeter=orthogonalPerimeter;rounded=0;shadow=0;strokeWidth=1;" parent="3nuBFxr9cyL0pnOWT2aG-1" vertex="1">
          <mxGeometry x="50" y="70" width="10" height="100" as="geometry" />
        </mxCell>
        <mxCell id="3nuBFxr9cyL0pnOWT2aG-5" value=":Appointment Receiver" style="shape=umlLifeline;perimeter=lifelinePerimeter;container=1;collapsible=0;recursiveResize=0;rounded=0;shadow=0;strokeWidth=1;fontSize=14;movable=0;resizable=0;rotatable=0;deletable=0;editable=0;connectable=0;" parent="1" vertex="1">
          <mxGeometry x="190" y="10" width="150" height="590" as="geometry" />
        </mxCell>
        <mxCell id="3nuBFxr9cyL0pnOWT2aG-6" value="" style="points=[];perimeter=orthogonalPerimeter;rounded=0;shadow=0;strokeWidth=1;" parent="3nuBFxr9cyL0pnOWT2aG-5" vertex="1">
          <mxGeometry x="70" y="70" width="10" height="50" as="geometry" />
        </mxCell>
        <mxCell id="WSKPEvt7Ojsi1xpnJ06T-20" value="" style="points=[];perimeter=orthogonalPerimeter;rounded=0;shadow=0;strokeWidth=1;" parent="3nuBFxr9cyL0pnOWT2aG-5" vertex="1">
          <mxGeometry x="70" y="180" width="10" height="30" as="geometry" />
        </mxCell>
        <mxCell id="WSKPEvt7Ojsi1xpnJ06T-21" value="" style="points=[];perimeter=orthogonalPerimeter;rounded=0;shadow=0;strokeWidth=1;" parent="3nuBFxr9cyL0pnOWT2aG-5" vertex="1">
          <mxGeometry x="70" y="350" width="10" height="30" as="geometry" />
        </mxCell>
        <mxCell id="WSKPEvt7Ojsi1xpnJ06T-56" value="" style="points=[];perimeter=orthogonalPerimeter;rounded=0;shadow=0;strokeWidth=1;" parent="3nuBFxr9cyL0pnOWT2aG-5" vertex="1">
          <mxGeometry x="70" y="520" width="10" height="30" as="geometry" />
        </mxCell>
        <mxCell id="3nuBFxr9cyL0pnOWT2aG-7" value="2: OTP" style="verticalAlign=bottom;endArrow=open;dashed=1;endSize=8;shadow=0;strokeWidth=1;entryX=-0.1;entryY=0.48;entryDx=0;entryDy=0;entryPerimeter=0;exitX=1;exitY=0.24;exitDx=0;exitDy=0;exitPerimeter=0;fontSize=14;" parent="1" source="WSKPEvt7Ojsi1xpnJ06T-1" target="3nuBFxr9cyL0pnOWT2aG-6" edge="1">
          <mxGeometry x="0.092" y="-6" relative="1" as="geometry">
            <mxPoint x="155" y="105" as="targetPoint" />
            <mxPoint x="215" y="135" as="sourcePoint" />
            <mxPoint as="offset" />
          </mxGeometry>
        </mxCell>
        <mxCell id="3nuBFxr9cyL0pnOWT2aG-9" value="10: Approve/Reject Request" style="verticalAlign=bottom;endArrow=block;shadow=0;strokeWidth=1;fontSize=14;entryX=0.1;entryY=0.633;entryDx=0;entryDy=0;entryPerimeter=0;" parent="1" target="WSKPEvt7Ojsi1xpnJ06T-60" edge="1">
          <mxGeometry x="-0.3548" y="-21" relative="1" as="geometry">
            <mxPoint x="270" y="379" as="sourcePoint" />
            <mxPoint x="550" y="379" as="targetPoint" />
            <mxPoint as="offset" />
          </mxGeometry>
        </mxCell>
        <mxCell id="WSKPEvt7Ojsi1xpnJ06T-3" value="1: Registration" style="text;html=1;strokeColor=none;fillColor=none;align=center;verticalAlign=middle;whiteSpace=wrap;rounded=0;fontSize=14;" parent="1" vertex="1">
          <mxGeometry x="130" y="60" width="110" height="30" as="geometry" />
        </mxCell>
        <mxCell id="WSKPEvt7Ojsi1xpnJ06T-4" value=":Appointment Scheduler" style="shape=umlLifeline;perimeter=lifelinePerimeter;container=1;collapsible=0;recursiveResize=0;rounded=0;shadow=0;strokeWidth=1;fontSize=14;movable=1;resizable=1;rotatable=1;deletable=1;editable=1;connectable=1;" parent="1" vertex="1">
          <mxGeometry x="350" y="10" width="151" height="590" as="geometry" />
        </mxCell>
        <mxCell id="WSKPEvt7Ojsi1xpnJ06T-5" value="" style="points=[];perimeter=orthogonalPerimeter;rounded=0;shadow=0;strokeWidth=1;" parent="WSKPEvt7Ojsi1xpnJ06T-4" vertex="1">
          <mxGeometry x="70.5" y="110" width="10" height="50" as="geometry" />
        </mxCell>
        <mxCell id="WSKPEvt7Ojsi1xpnJ06T-22" value="" style="points=[];perimeter=orthogonalPerimeter;rounded=0;shadow=0;strokeWidth=1;" parent="WSKPEvt7Ojsi1xpnJ06T-4" vertex="1">
          <mxGeometry x="70" y="190" width="10" height="160" as="geometry" />
        </mxCell>
        <mxCell id="WSKPEvt7Ojsi1xpnJ06T-36" value="" style="points=[];perimeter=orthogonalPerimeter;rounded=0;shadow=0;strokeWidth=1;" parent="WSKPEvt7Ojsi1xpnJ06T-4" vertex="1">
          <mxGeometry x="70.5" y="400" width="10" height="90" as="geometry" />
        </mxCell>
        <mxCell id="WSKPEvt7Ojsi1xpnJ06T-69" value="" style="endArrow=classic;html=1;rounded=0;fontSize=14;fontColor=default;entryX=0.1;entryY=0.1;entryDx=0;entryDy=0;entryPerimeter=0;" parent="WSKPEvt7Ojsi1xpnJ06T-4" edge="1">
          <mxGeometry width="50" height="50" relative="1" as="geometry">
            <mxPoint x="-80" y="539" as="sourcePoint" />
            <mxPoint x="231" y="539" as="targetPoint" />
          </mxGeometry>
        </mxCell>
        <mxCell id="WSKPEvt7Ojsi1xpnJ06T-12" value="" style="endArrow=classic;html=1;rounded=0;fontSize=14;exitX=0;exitY=0.14;exitDx=0;exitDy=0;exitPerimeter=0;" parent="1" source="3nuBFxr9cyL0pnOWT2aG-6" edge="1">
          <mxGeometry width="50" height="50" relative="1" as="geometry">
            <mxPoint x="270" y="86" as="sourcePoint" />
            <mxPoint x="110" y="87" as="targetPoint" />
          </mxGeometry>
        </mxCell>
        <mxCell id="WSKPEvt7Ojsi1xpnJ06T-14" value="" style="endArrow=classic;html=1;rounded=0;fontSize=14;exitX=-0.25;exitY=0.32;exitDx=0;exitDy=0;exitPerimeter=0;" parent="1" source="WSKPEvt7Ojsi1xpnJ06T-5" target="WSKPEvt7Ojsi1xpnJ06T-1" edge="1">
          <mxGeometry width="50" height="50" relative="1" as="geometry">
            <mxPoint x="430" y="133" as="sourcePoint" />
            <mxPoint x="450" y="210" as="targetPoint" />
          </mxGeometry>
        </mxCell>
        <mxCell id="WSKPEvt7Ojsi1xpnJ06T-15" value="3: Login" style="text;html=1;strokeColor=none;fillColor=none;align=center;verticalAlign=middle;whiteSpace=wrap;rounded=0;fontSize=14;" parent="1" vertex="1">
          <mxGeometry x="280" y="105" width="110" height="30" as="geometry" />
        </mxCell>
        <mxCell id="3nuBFxr9cyL0pnOWT2aG-10" value="4: OTP" style="verticalAlign=bottom;endArrow=open;dashed=1;endSize=8;shadow=0;strokeWidth=1;exitX=1.1;exitY=0.78;exitDx=0;exitDy=0;exitPerimeter=0;entryX=-0.05;entryY=0.76;entryDx=0;entryDy=0;entryPerimeter=0;fontSize=14;" parent="1" source="WSKPEvt7Ojsi1xpnJ06T-1" target="WSKPEvt7Ojsi1xpnJ06T-5" edge="1">
          <mxGeometry x="-0.2945" y="-2" relative="1" as="geometry">
            <mxPoint x="220" y="159.5" as="targetPoint" />
            <mxPoint x="150" y="159.5" as="sourcePoint" />
            <mxPoint as="offset" />
          </mxGeometry>
        </mxCell>
        <mxCell id="WSKPEvt7Ojsi1xpnJ06T-18" value=":Database" style="shape=umlLifeline;perimeter=lifelinePerimeter;container=1;collapsible=0;recursiveResize=0;rounded=0;shadow=0;strokeWidth=1;fontSize=14;movable=0;resizable=0;rotatable=0;deletable=0;editable=0;connectable=0;" parent="1" vertex="1">
          <mxGeometry x="530" y="10" width="110" height="590" as="geometry" />
        </mxCell>
        <mxCell id="WSKPEvt7Ojsi1xpnJ06T-19" value="" style="points=[];perimeter=orthogonalPerimeter;rounded=0;shadow=0;strokeWidth=1;" parent="WSKPEvt7Ojsi1xpnJ06T-18" vertex="1">
          <mxGeometry x="50" y="200" width="10" height="140" as="geometry" />
        </mxCell>
        <mxCell id="WSKPEvt7Ojsi1xpnJ06T-32" value="" style="points=[];perimeter=orthogonalPerimeter;rounded=0;shadow=0;strokeWidth=1;" parent="WSKPEvt7Ojsi1xpnJ06T-18" vertex="1">
          <mxGeometry x="50" y="160" width="10" height="30" as="geometry" />
        </mxCell>
        <mxCell id="WSKPEvt7Ojsi1xpnJ06T-60" value="" style="points=[];perimeter=orthogonalPerimeter;rounded=0;shadow=0;strokeWidth=1;" parent="WSKPEvt7Ojsi1xpnJ06T-18" vertex="1">
          <mxGeometry x="50" y="350" width="10" height="30" as="geometry" />
        </mxCell>
        <mxCell id="WSKPEvt7Ojsi1xpnJ06T-61" value="" style="points=[];perimeter=orthogonalPerimeter;rounded=0;shadow=0;strokeWidth=1;" parent="WSKPEvt7Ojsi1xpnJ06T-18" vertex="1">
          <mxGeometry x="50" y="400" width="10" height="110" as="geometry" />
        </mxCell>
        <mxCell id="WSKPEvt7Ojsi1xpnJ06T-67" value="" style="points=[];perimeter=orthogonalPerimeter;rounded=0;shadow=0;strokeWidth=1;" parent="WSKPEvt7Ojsi1xpnJ06T-18" vertex="1">
          <mxGeometry x="50" y="525" width="10" height="35" as="geometry" />
        </mxCell>
        <mxCell id="3nuBFxr9cyL0pnOWT2aG-8" value="5: Enters Appointment Slot" style="verticalAlign=bottom;endArrow=block;shadow=0;strokeWidth=1;fontSize=14;entryX=-0.2;entryY=0.633;entryDx=0;entryDy=0;entryPerimeter=0;" parent="1" source="WSKPEvt7Ojsi1xpnJ06T-20" target="WSKPEvt7Ojsi1xpnJ06T-32" edge="1">
          <mxGeometry relative="1" as="geometry">
            <mxPoint x="320" y="190" as="sourcePoint" />
            <mxPoint x="550" y="190" as="targetPoint" />
          </mxGeometry>
        </mxCell>
        <mxCell id="WSKPEvt7Ojsi1xpnJ06T-23" value="" style="endArrow=classic;html=1;rounded=0;fontSize=14;exitX=1.05;exitY=0.12;exitDx=0;exitDy=0;exitPerimeter=0;" parent="1" source="WSKPEvt7Ojsi1xpnJ06T-22" target="WSKPEvt7Ojsi1xpnJ06T-19" edge="1">
          <mxGeometry width="50" height="50" relative="1" as="geometry">
            <mxPoint x="450" y="230" as="sourcePoint" />
            <mxPoint x="450" y="210" as="targetPoint" />
          </mxGeometry>
        </mxCell>
        <mxCell id="WSKPEvt7Ojsi1xpnJ06T-24" value="6: Searches Profile" style="text;html=1;strokeColor=none;fillColor=none;align=center;verticalAlign=middle;whiteSpace=wrap;rounded=0;fontSize=14;" parent="1" vertex="1">
          <mxGeometry x="430" y="200" width="150" height="50" as="geometry" />
        </mxCell>
        <mxCell id="WSKPEvt7Ojsi1xpnJ06T-25" value="" style="verticalAlign=bottom;endArrow=open;dashed=1;endSize=8;shadow=0;strokeWidth=1;" parent="1" edge="1">
          <mxGeometry x="-1" y="-70" relative="1" as="geometry">
            <mxPoint x="430" y="253" as="targetPoint" />
            <mxPoint x="580" y="253" as="sourcePoint" />
            <mxPoint x="39" y="63" as="offset" />
          </mxGeometry>
        </mxCell>
        <mxCell id="WSKPEvt7Ojsi1xpnJ06T-26" value="&lt;div&gt;7: Views Profile&lt;/div&gt;&lt;div&gt;&amp;amp;&lt;/div&gt;&lt;div&gt;Appointment Slots&lt;br&gt;&lt;/div&gt;" style="text;html=1;strokeColor=none;fillColor=none;align=center;verticalAlign=middle;whiteSpace=wrap;rounded=0;fontSize=14;" parent="1" vertex="1">
          <mxGeometry x="440" y="250" width="120" height="60" as="geometry" />
        </mxCell>
        <mxCell id="WSKPEvt7Ojsi1xpnJ06T-29" value="" style="endArrow=classic;html=1;rounded=0;fontSize=14;entryX=0.1;entryY=0.707;entryDx=0;entryDy=0;entryPerimeter=0;" parent="1" source="WSKPEvt7Ojsi1xpnJ06T-22" target="WSKPEvt7Ojsi1xpnJ06T-19" edge="1">
          <mxGeometry width="50" height="50" relative="1" as="geometry">
            <mxPoint x="400" y="290" as="sourcePoint" />
            <mxPoint x="450" y="240" as="targetPoint" />
          </mxGeometry>
        </mxCell>
        <mxCell id="WSKPEvt7Ojsi1xpnJ06T-30" value="8: Appointment Request" style="text;html=1;strokeColor=none;fillColor=none;align=center;verticalAlign=middle;whiteSpace=wrap;rounded=0;fontSize=14;" parent="1" vertex="1">
          <mxGeometry x="460" y="320" width="100" height="30" as="geometry" />
        </mxCell>
        <mxCell id="WSKPEvt7Ojsi1xpnJ06T-31" value="9: Request Notification" style="verticalAlign=bottom;endArrow=block;shadow=0;strokeWidth=1;fontSize=14;" parent="1" edge="1">
          <mxGeometry x="0.5485" y="-4" relative="1" as="geometry">
            <mxPoint x="580" y="364" as="sourcePoint" />
            <mxPoint x="270" y="364" as="targetPoint" />
            <mxPoint as="offset" />
          </mxGeometry>
        </mxCell>
        <mxCell id="WSKPEvt7Ojsi1xpnJ06T-53" value="" style="endArrow=classic;html=1;rounded=0;fontSize=14;fontColor=none;exitX=-0.3;exitY=0.073;exitDx=0;exitDy=0;exitPerimeter=0;" parent="1" source="WSKPEvt7Ojsi1xpnJ06T-61" target="WSKPEvt7Ojsi1xpnJ06T-36" edge="1">
          <mxGeometry width="50" height="50" relative="1" as="geometry">
            <mxPoint x="560" y="420" as="sourcePoint" />
            <mxPoint x="430" y="448" as="targetPoint" />
          </mxGeometry>
        </mxCell>
        <mxCell id="WSKPEvt7Ojsi1xpnJ06T-54" value="13:Rescheduling Request" style="text;html=1;strokeColor=none;fillColor=none;align=center;verticalAlign=middle;whiteSpace=wrap;rounded=0;labelBackgroundColor=none;labelBorderColor=none;fontSize=14;fontColor=default;" parent="1" vertex="1">
          <mxGeometry x="435" y="470" width="140" height="40" as="geometry" />
        </mxCell>
        <mxCell id="WSKPEvt7Ojsi1xpnJ06T-48" value="11: Appointment Status" style="text;html=1;strokeColor=none;fillColor=none;align=center;verticalAlign=middle;whiteSpace=wrap;rounded=0;labelBackgroundColor=none;labelBorderColor=none;fontSize=14;fontColor=default;" parent="1" vertex="1">
          <mxGeometry x="430" y="390" width="150" height="30" as="geometry" />
        </mxCell>
        <mxCell id="WSKPEvt7Ojsi1xpnJ06T-58" value="" style="endArrow=classic;html=1;rounded=0;fontSize=14;fontColor=default;entryX=0.1;entryY=0.1;entryDx=0;entryDy=0;entryPerimeter=0;" parent="1" source="WSKPEvt7Ojsi1xpnJ06T-56" target="WSKPEvt7Ojsi1xpnJ06T-67" edge="1">
          <mxGeometry width="50" height="50" relative="1" as="geometry">
            <mxPoint x="330" y="490" as="sourcePoint" />
            <mxPoint x="380" y="440" as="targetPoint" />
          </mxGeometry>
        </mxCell>
        <mxCell id="WSKPEvt7Ojsi1xpnJ06T-63" value="" style="endArrow=classic;html=1;rounded=0;fontSize=14;fontColor=default;exitX=0.95;exitY=0.222;exitDx=0;exitDy=0;exitPerimeter=0;" parent="1" source="WSKPEvt7Ojsi1xpnJ06T-36" edge="1">
          <mxGeometry width="50" height="50" relative="1" as="geometry">
            <mxPoint x="720" y="515" as="sourcePoint" />
            <mxPoint x="580" y="430" as="targetPoint" />
          </mxGeometry>
        </mxCell>
        <mxCell id="WSKPEvt7Ojsi1xpnJ06T-64" value="12:Cancellation Request" style="text;html=1;strokeColor=none;fillColor=none;align=center;verticalAlign=middle;whiteSpace=wrap;rounded=0;labelBackgroundColor=none;labelBorderColor=none;fontSize=14;fontColor=default;" parent="1" vertex="1">
          <mxGeometry x="435" y="430" width="140" height="40" as="geometry" />
        </mxCell>
        <mxCell id="WSKPEvt7Ojsi1xpnJ06T-65" value="" style="endArrow=classic;html=1;rounded=0;fontSize=14;fontColor=default;" parent="1" edge="1">
          <mxGeometry width="50" height="50" relative="1" as="geometry">
            <mxPoint x="430" y="470" as="sourcePoint" />
            <mxPoint x="580" y="470" as="targetPoint" />
          </mxGeometry>
        </mxCell>
        <mxCell id="WSKPEvt7Ojsi1xpnJ06T-70" value="15: Appointment Rescheduling" style="text;html=1;strokeColor=none;fillColor=none;align=center;verticalAlign=middle;whiteSpace=wrap;rounded=0;labelBackgroundColor=none;labelBorderColor=none;fontSize=14;fontColor=default;" parent="1" vertex="1">
          <mxGeometry x="265" y="550" width="175" height="30" as="geometry" />
        </mxCell>
        <mxCell id="WSKPEvt7Ojsi1xpnJ06T-68" value="14: Appointment Cancellation" style="text;html=1;strokeColor=none;fillColor=none;align=center;verticalAlign=middle;whiteSpace=wrap;rounded=0;labelBackgroundColor=none;labelBorderColor=none;fontSize=14;fontColor=default;" parent="1" vertex="1">
          <mxGeometry x="250" y="510" width="175" height="30" as="geometry" />
        </mxCell>
        <mxCell id="WSKPEvt7Ojsi1xpnJ06T-74" value="Alt" style="shape=umlFrame;whiteSpace=wrap;html=1;width=30;height=20;boundedLbl=1;verticalAlign=middle;align=left;spacingLeft=5;labelBackgroundColor=none;labelBorderColor=none;strokeColor=#FF0000;fontSize=14;fontColor=default;fillColor=none;" parent="1" vertex="1">
          <mxGeometry x="230" y="510" width="370" height="70" as="geometry" />
        </mxCell>
        <mxCell id="WSKPEvt7Ojsi1xpnJ06T-76" value="Alt" style="shape=umlFrame;whiteSpace=wrap;html=1;width=30;height=20;boundedLbl=1;verticalAlign=middle;align=left;spacingLeft=5;labelBackgroundColor=none;labelBorderColor=none;strokeColor=#FF0000;fontSize=14;fontColor=default;fillColor=none;" parent="1" vertex="1">
          <mxGeometry x="390" y="420" width="210" height="90" as="geometry" />
        </mxCell>
      </root>
    </mxGraphModel>
  </diagram>
</mxfile>
